<svg width="32" height="32" viewBox="0 0 24 24" fill="none" xmlns="http://www.w3.org/2000/svg">
  <path
    d="M18.37 2.63L14 7L17 10L21.37 5.63C22.21 4.79 22.21 3.47 21.37 2.63C20.53 1.79 19.21 1.79 18.37 2.63Z"
    fill="#60a5fa"
    fill-opacity="0.8"
  />
  <path
    d="M13 8L5.5 15.5C4.5 16.5 4 18 4 19.5L4.5 20L5 19.5C6.5 19.5 8 19 9 18L16 11L13 8Z"
    fill="#60a5fa"
    fill-opacity="0.6"
  />
  <path
    d="M4 19.5C4 20.88 5.12 22 6.5 22C7.5 22 8.5 21.5 9 20.5L4.5 20L4 19.5Z"
    fill="#60a5fa"
  />
</svg>
